<?xml version="1.0" encoding="UTF-8"?>
<svg xmlns="http://www.w3.org/2000/svg" xmlns:xlink="http://www.w3.org/1999/xlink" width="48pt" height="48pt" viewBox="0 0 48 48" version="1.1">
<g id="surface1960643">
<path style=" stroke:none;fill-rule:nonzero;fill:rgb(0%,0%,0%);fill-opacity:1;" d="M 43.800781 23.601562 C 38.898438 18.300781 38.300781 13 42.101562 8 L 42.199219 7.800781 L 40.300781 5.199219 L 40.101562 5.300781 C 36.800781 6.5 32.898438 6.101562 30.199219 4.101562 L 30 4 L 29.800781 4.101562 C 25.800781 6.898438 22 6.898438 18.101562 4.101562 L 18 4 L 17.800781 4.101562 C 14.800781 6.300781 10.5 6.398438 7.898438 5.300781 L 7.800781 5.199219 L 5.800781 7.898438 L 5.898438 8 C 9.699219 13.101562 9.199219 18.199219 4.199219 23.601562 L 4 23.800781 L 6 25.800781 C 5.800781 35.199219 10.898438 40.699219 21 41.5 L 24 44 L 27.101562 41.5 C 29.300781 41.398438 33.398438 40.800781 36.800781 38.199219 C 40.398438 35.398438 42.199219 31.300781 42.101562 25.800781 L 44.101562 23.800781 Z M 43.800781 23.601562 "/>
<path style=" stroke:none;fill-rule:nonzero;fill:rgb(5.098039%,27.843137%,63.137255%);fill-opacity:1;" d="M 39.101562 25.898438 L 9 25.898438 C 8.601562 29.398438 9.398438 32.199219 11.199219 34.398438 C 13.300781 36.898438 16.898438 38.398438 21.398438 38.800781 L 26.601562 38.800781 C 31 38.601562 34.5 37.101562 36.699219 34.601562 C 38.601562 32.300781 39.398438 29.398438 39.101562 25.898438 Z M 28.5 32.101562 C 28.5 33.300781 28 34.398438 27.199219 35.199219 C 26.398438 36 25.199219 36.5 24.101562 36.5 C 21.601562 36.5 19.699219 34.5 19.699219 32.101562 C 19.699219 30.898438 20.199219 29.800781 21 29 C 21.800781 28.199219 23 27.699219 24.101562 27.699219 C 25.300781 27.699219 26.398438 28.199219 27.199219 29 C 28.101562 29.898438 28.5 31 28.5 32.101562 Z M 28.5 32.101562 "/>
<path style=" stroke:none;fill-rule:nonzero;fill:rgb(100%,75.686275%,2.745098%);fill-opacity:1;" d="M 29 23.199219 L 27.898438 23.199219 L 27.898438 24.101562 L 29 24.101562 C 29.398438 24 29.5 23.398438 29 23.199219 Z M 28.898438 21.800781 L 27.800781 21.800781 L 27.800781 22.5 L 28.898438 22.5 C 29.199219 22.398438 29.398438 21.898438 28.898438 21.800781 Z M 28.898438 21.800781 "/>
<path style=" stroke:none;fill-rule:nonzero;fill:rgb(77.647059%,15.686275%,15.686275%);fill-opacity:1;" d="M 35.199219 35.898438 C 34 36.800781 32.5 37.601562 30.800781 38 L 30.699219 38 L 30.699219 25.898438 L 35.199219 25.898438 Z M 17.300781 38 L 17.300781 25.898438 L 12.800781 25.898438 L 12.800781 35.898438 C 14.101562 36.800781 15.601562 37.5 17.300781 38 Z M 24.101562 36.5 C 23.300781 36.5 22.5 36.300781 21.800781 35.898438 L 21.800781 38.699219 L 26.300781 38.699219 L 26.300781 36 C 25.601562 36.300781 24.898438 36.5 24.101562 36.5 Z M 24.101562 27.699219 C 24.898438 27.699219 25.601562 27.898438 26.300781 28.300781 L 26.300781 25.800781 L 21.800781 25.800781 L 21.800781 28.300781 C 22.5 28 23.199219 27.699219 24.101562 27.699219 Z M 24.101562 27.699219 "/>
<path style=" stroke:none;fill-rule:nonzero;fill:rgb(100%,75.686275%,2.745098%);fill-opacity:1;" d="M 21.199219 29.601562 C 20.898438 30.800781 20.898438 32.101562 21.699219 32.898438 C 21.398438 33.300781 21.101562 33.398438 20.5 33.5 C 20.300781 33.101562 20.199219 32.601562 20.199219 32.101562 C 20.199219 31.199219 20.5 30.300781 21.199219 29.601562 Z M 21.601562 35.101562 C 23.800781 34.898438 25.101562 34.199219 25.601562 33 C 25.5 32.5 25.199219 32.199219 25 32.101562 C 24.800781 32 24.601562 32.101562 24.300781 32.199219 C 24.199219 32.5 23.800781 33.199219 23.199219 33.398438 C 23.101562 33.398438 23 33.5 22.800781 33.5 C 22.601562 33.5 22.300781 33.398438 22.101562 33.300781 C 22.101562 33.300781 22.101562 33.300781 22 33.199219 C 21.601562 33.699219 21.199219 33.898438 20.699219 34 C 21 34.5 21.300781 34.800781 21.601562 35.101562 Z M 23.300781 28.398438 C 22.800781 28.5 22.300781 28.699219 21.898438 29 C 21.398438 30.898438 21.300781 32.199219 22.398438 32.898438 C 22.601562 33 22.800781 33 23 33 C 23.300781 32.898438 23.601562 32.5 23.699219 32.300781 C 23.199219 31.898438 22.601562 31.199219 23.5 29.898438 C 23.199219 29.199219 23.199219 28.699219 23.300781 28.398438 Z M 27.898438 31.398438 C 27.800781 30.699219 27.398438 30 26.800781 29.398438 C 26.101562 28.699219 25.101562 28.300781 24.101562 28.300781 C 23.699219 28.601562 23.699219 29 24.101562 29.5 C 25.601562 29.199219 27 30.300781 27.898438 31.398438 Z M 27.898438 32.398438 C 27.300781 31.398438 25.800781 29.601562 24.101562 30 C 23.300781 30.898438 23.699219 31.300781 24.101562 31.699219 C 24.601562 31.398438 25 31.5 25.300781 31.601562 C 25.699219 31.800781 26 32.101562 26.199219 32.699219 C 26.5 32.601562 26.800781 32.699219 27.101562 32.800781 C 27.398438 32.898438 27.601562 33.101562 27.800781 33.300781 C 27.800781 33.101562 27.898438 32.800781 27.898438 32.398438 Z M 24.101562 36 C 25.101562 36 26.101562 35.601562 26.800781 34.898438 C 27.101562 34.601562 27.300781 34.398438 27.398438 34 C 27.300781 33.699219 27.101562 33.5 26.800781 33.398438 C 26.601562 33.300781 26.398438 33.300781 26.199219 33.300781 C 25.601562 34.5 24.398438 35.300781 22.398438 35.601562 C 22.898438 35.800781 23.5 36 24.101562 36 Z M 24.101562 36 "/>
<path style=" stroke:none;fill-rule:nonzero;fill:rgb(100%,75.686275%,2.745098%);fill-opacity:1;" d="M 42.601562 23.800781 C 38 18.800781 37.5 12.699219 41 7.898438 L 40 6.398438 L 39.898438 6.398438 C 36.601562 7.5 32.601562 7 30.199219 5.199219 L 30.101562 5.101562 L 30 5.300781 C 26.199219 8 21.800781 8 18.101562 5.300781 L 18 5.199219 L 17.898438 5.300781 C 15.101562 7.300781 10.699219 7.5 8.300781 6.5 L 8.199219 6.5 L 7 7.898438 L 7.101562 8 C 12.398438 15.300781 7.199219 21.898438 5.5 23.800781 L 5.398438 23.898438 L 7 25.601562 C 6.699219 29.898438 7.699219 33.398438 10 36 C 12.5 38.800781 16.398438 40.398438 21.300781 40.699219 L 23.898438 42.898438 L 26.5 40.699219 C 28.199219 40.699219 34 40.199219 37.800781 36.101562 C 40.199219 33.5 41.199219 30 40.800781 25.601562 Z M 9.398438 20.101562 C 11.199219 16 11 12 8.898438 8.5 L 8.601562 8 L 9.199219 8.101562 C 12.699219 8.601562 15.300781 8.199219 17.800781 6.898438 L 18 6.800781 L 18.101562 6.898438 C 22 9.101562 25.898438 9.101562 29.898438 6.898438 L 30 6.800781 L 30.101562 6.898438 C 32.199219 8.199219 34.5 8.601562 38.601562 8.199219 L 39.101562 8.199219 L 39 8.601562 C 36.898438 12.101562 36.800781 16.199219 38.601562 20.101562 L 38.800781 20.5 L 9.398438 20.5 Z M 29.199219 24.898438 L 27 24.898438 L 27 21 L 29.101562 21 C 30.199219 21.199219 30.300781 22.300781 29.699219 22.800781 C 30.800781 23.699219 29.898438 24.800781 29.199219 24.898438 Z M 23 23.601562 C 23.199219 23.898438 23.5 24.101562 23.800781 24.101562 C 24.101562 24.101562 24.300781 23.898438 24.398438 23.601562 L 25.199219 24 C 25 24.601562 24.398438 25 23.800781 25 C 23.699219 25 23.601562 25 23.5 25 C 23 24.898438 22.5 24.601562 22.199219 24.199219 C 21.800781 23.601562 21.800781 22.699219 22.101562 21.800781 C 22.398438 21.199219 22.898438 20.898438 23.601562 20.898438 C 24.300781 20.898438 24.898438 21.300781 25.199219 21.800781 L 24.398438 22.199219 C 24.199219 21.898438 23.898438 21.800781 23.699219 21.800781 C 23.398438 21.800781 23.199219 22 23 22.199219 C 22.699219 22.800781 22.800781 23.300781 23 23.601562 Z M 19.5 22.398438 L 19.5 23.199219 L 18.300781 23.199219 L 18.300781 24.800781 L 17.5 24.800781 L 17.5 21 L 20.398438 21 L 20.398438 21.800781 L 18.398438 21.800781 L 18.398438 22.398438 Z M 37.101562 34.898438 C 34.800781 37.5 31.199219 39 26.601562 39.300781 L 21.398438 39.300781 C 16.601562 39 13 37.398438 10.699219 34.699219 C 8.699219 32.398438 8 29.300781 8.398438 25.601562 L 8.398438 25.300781 L 39.5 25.300781 L 39.5 25.601562 C 40 29.398438 39.101562 32.5 37.101562 34.898438 Z M 37.101562 34.898438 "/>
<path style=" stroke:none;fill-rule:nonzero;fill:rgb(100%,100%,100%);fill-opacity:1;" d="M 23.699219 20 L 23.699219 9.101562 C 21.800781 9.101562 19.800781 8.5 17.898438 7.398438 C 15.5 8.699219 12.898438 9.101562 9.699219 8.699219 C 11.5 12.101562 11.699219 16 10.101562 19.898438 Z M 23.699219 20 "/>
<path style=" stroke:none;fill-rule:nonzero;fill:rgb(100%,92.156863%,23.137255%);fill-opacity:1;" d="M 38.199219 8.800781 C 34.5 9.101562 32.101562 8.699219 30 7.5 C 28.101562 8.601562 26.101562 9.101562 24.199219 9.199219 L 24.199219 20 L 37.699219 20 C 36.199219 16.199219 36.398438 12.199219 38.199219 8.800781 Z M 38.199219 8.800781 "/>
<path style=" stroke:none;fill-rule:nonzero;fill:rgb(100%,9.019608%,26.666667%);fill-opacity:1;" d="M 36.199219 20 L 34.601562 20 L 34.601562 8.800781 C 35.101562 8.800781 35.601562 8.898438 36.199219 8.898438 Z M 27.101562 8.699219 C 26.5 8.800781 26 9 25.5 9 L 25.5 20 L 27.101562 20 Z M 33.199219 8.601562 C 32.601562 8.5 32.101562 8.300781 31.601562 8.199219 L 31.601562 20 L 33.199219 20 Z M 30.101562 7.5 C 29.5 7.699219 29 8 28.5 8.199219 L 28.5 20 L 30.101562 20 Z M 23.699219 12.101562 L 19.5 12.101562 L 19.5 8.199219 C 19 8 18.5 7.699219 18 7.398438 C 17.101562 7.898438 16.199219 8.199219 15.199219 8.5 L 15.199219 12 L 11 12 C 11.300781 13.398438 11.300781 14.800781 11.101562 16.300781 L 15.199219 16.300781 L 15.199219 20 L 19.5 20 L 19.5 16.398438 L 23.699219 16.398438 Z M 23.699219 12.101562 "/>
</g>
</svg>
