<?xml version="1.0" encoding="UTF-8"?>
<svg xmlns="http://www.w3.org/2000/svg" xmlns:xlink="http://www.w3.org/1999/xlink" width="48pt" height="48pt" viewBox="0 0 48 48" version="1.1">
<g id="surface1960991">
<path style=" stroke:none;fill-rule:nonzero;fill:rgb(0%,0%,0%);fill-opacity:1;" d="M 45 25.804688 C 45 23.726562 43.289062 22.039062 41.183594 22.039062 C 41.175781 22.039062 41.171875 22.042969 41.164062 22.042969 C 43.5625 20.8125 43.464844 17 43.464844 16.960938 L 43.460938 16.886719 L 43.402344 16.84375 C 43.324219 16.789062 43.238281 16.730469 43.148438 16.667969 C 42.894531 16.496094 42.574219 16.277344 42.191406 15.949219 L 42.203125 15.101562 C 42.507812 15.328125 43.074219 15.332031 43.410156 14.980469 C 43.5625 14.820312 43.648438 14.574219 43.636719 14.320312 C 43.621094 14.03125 43.488281 13.734375 43.273438 13.523438 C 42.039062 12.335938 40.945312 11.148438 40.945312 11.148438 C 40.832031 10.972656 40.65625 10.84375 40.554688 10.800781 C 40.402344 10.730469 39.867188 10.488281 39.460938 11.101562 C 39.152344 11.5625 39.140625 12.160156 39.1875 12.523438 C 39.1875 12.519531 39.183594 12.519531 39.183594 12.519531 C 38.253906 11.214844 35.460938 7.820312 30.699219 5.96875 C 30.371094 3.910156 29.167969 3.503906 28.5625 3.503906 C 27.585938 3.503906 26.605469 4.023438 25.613281 4.785156 C 25.601562 4.785156 25.589844 4.785156 25.582031 4.785156 L 25.53125 4.664062 C 25.097656 3.726562 24.554688 3 24.09375 3 C 23.730469 3 23.085938 3.480469 22.378906 4.785156 C 22.355469 4.785156 22.335938 4.785156 22.316406 4.789062 C 21.328125 4.023438 20.34375 3.503906 19.367188 3.503906 C 18.761719 3.503906 17.558594 3.910156 17.234375 5.960938 C 12.613281 7.753906 9.855469 11 8.84375 12.386719 C 8.863281 12.019531 8.820312 11.503906 8.554688 11.101562 C 8.148438 10.488281 7.613281 10.730469 7.457031 10.804688 C 7.359375 10.847656 7.179688 10.972656 7.066406 11.152344 C 7.066406 11.152344 5.953125 12.363281 4.726562 13.554688 C 4.554688 13.722656 4.363281 14.035156 4.347656 14.320312 C 4.332031 14.578125 4.4375 14.832031 4.585938 14.992188 C 4.921875 15.347656 5.507812 15.332031 5.808594 15.101562 L 5.824219 15.878906 C 5.398438 16.242188 5.058594 16.476562 4.789062 16.660156 C 4.695312 16.726562 4.605469 16.785156 4.527344 16.84375 L 4.46875 16.886719 L 4.464844 16.960938 C 4.460938 17.003906 4.359375 20.820312 6.765625 22.046875 C 4.683594 22.074219 3 23.75 3 25.8125 C 3 27.890625 4.710938 29.578125 6.816406 29.578125 C 7.039062 29.578125 7.257812 29.550781 7.472656 29.515625 C 7.308594 29.636719 7.152344 29.769531 7.011719 29.921875 C 6.550781 30.421875 6.027344 31.292969 6.152344 32.609375 C 6.324219 34.398438 8.890625 38.285156 13.078125 40.632812 C 14.644531 41.511719 16.265625 42.183594 17.921875 42.664062 C 18.292969 43.574219 18.945312 44.546875 20.183594 44.546875 C 21.179688 44.546875 21.804688 44.0625 22.15625 43.644531 C 22.386719 44.121094 22.953125 45 24.0625 45 C 25.1875 45 25.742188 44.113281 25.984375 43.546875 C 26.292969 44.003906 26.902344 44.546875 27.992188 44.546875 C 29.261719 44.546875 29.914062 43.511719 30.28125 42.578125 C 31.84375 42.105469 33.367188 41.460938 34.84375 40.632812 C 39.03125 38.289062 41.597656 34.398438 41.773438 32.609375 C 41.898438 31.292969 41.375 30.421875 40.914062 29.921875 C 40.769531 29.765625 40.605469 29.625 40.4375 29.5 C 40.679688 29.546875 40.929688 29.574219 41.183594 29.574219 C 43.289062 29.574219 45 27.882812 45 25.804688 Z M 4.765625 17.042969 C 4.828125 17 4.890625 16.953125 4.960938 16.90625 C 5.703125 16.398438 6.949219 15.546875 8.992188 12.691406 C 10.273438 10.890625 15.144531 5.015625 23.960938 5.015625 C 32.769531 5.015625 37.648438 10.894531 38.933594 12.691406 C 40.984375 15.5625 42.230469 16.410156 42.976562 16.914062 C 43.042969 16.960938 43.101562 17.003906 43.160156 17.042969 C 43.164062 17.613281 43.070312 21.347656 40.398438 22.019531 C 38.738281 22.433594 37.054688 21.484375 35.257812 19.113281 C 35.1875 19.027344 35.101562 18.902344 34.992188 18.75 C 34.480469 18.035156 33.523438 16.699219 32.140625 15.394531 L 32.140625 15.378906 L 31.960938 15.21875 C 31.808594 15.085938 31.617188 14.917969 31.414062 14.753906 C 31.417969 14.753906 31.417969 14.753906 31.417969 14.753906 C 29.566406 13.210938 27.082031 11.867188 23.960938 11.867188 C 21.0625 11.867188 18.714844 13.027344 16.914062 14.429688 C 16.539062 14.703125 15.953125 15.191406 15.835938 15.316406 L 15.792969 15.359375 L 15.792969 15.382812 C 14.398438 16.691406 13.4375 18.035156 12.925781 18.757812 C 12.820312 18.90625 12.734375 19.027344 12.667969 19.113281 C 10.867188 21.484375 9.183594 22.433594 7.523438 22.019531 C 4.851562 21.347656 4.765625 17.609375 4.765625 17.042969 Z M 31.835938 15.523438 L 31.824219 31.882812 L 25.121094 36.136719 C 24.730469 36.175781 24.339844 36.21875 23.960938 36.21875 C 23.582031 36.21875 23.191406 36.175781 22.800781 36.136719 L 16.097656 31.882812 L 16.097656 15.511719 C 16.539062 15.101562 17.027344 14.703125 17.554688 14.324219 C 17.417969 14.421875 17.289062 14.523438 17.15625 14.625 L 30.734375 14.625 C 30.894531 14.726562 31.070312 14.859375 31.238281 15 C 30.960938 14.769531 30.671875 14.542969 30.367188 14.324219 L 17.554688 14.324219 C 19.25 13.113281 21.386719 12.167969 23.960938 12.167969 C 29.929688 12.167969 33.554688 17.253906 34.742188 18.925781 C 34.855469 19.078125 34.945312 19.203125 35.015625 19.296875 C 36.574219 21.351562 38.070312 22.378906 39.5625 22.410156 C 38.269531 23.011719 37.367188 24.300781 37.367188 25.804688 C 37.367188 27.074219 38.011719 28.191406 38.988281 28.878906 C 38.828125 28.851562 38.671875 28.820312 38.519531 28.820312 C 37.09375 28.820312 36.457031 29.539062 36.078125 29.96875 L 36.023438 30.027344 C 33.136719 33.269531 29.375 35.449219 25.832031 36.042969 L 32.128906 32.050781 L 32.140625 15.816406 C 32.039062 15.71875 31.941406 15.621094 31.835938 15.523438 Z M 25.832031 36.039062 C 25.59375 36.082031 25.355469 36.109375 25.121094 36.136719 C 25.355469 36.109375 25.59375 36.082031 25.832031 36.039062 Z M 22.800781 36.136719 C 22.566406 36.109375 22.328125 36.082031 22.089844 36.042969 C 22.328125 36.082031 22.566406 36.109375 22.800781 36.136719 Z M 22.089844 36.042969 C 18.546875 35.449219 14.785156 33.269531 11.902344 30.027344 L 11.851562 29.972656 C 11.472656 29.539062 10.835938 28.820312 9.402344 28.820312 C 9.28125 28.820312 9.160156 28.847656 9.035156 28.863281 C 10 28.179688 10.632812 27.070312 10.632812 25.8125 C 10.632812 24.296875 9.71875 22.996094 8.410156 22.398438 C 9.882812 22.34375 11.363281 21.328125 12.910156 19.296875 C 12.980469 19.207031 13.066406 19.082031 13.175781 18.929688 C 13.652344 18.257812 14.53125 17.03125 15.796875 15.804688 L 15.796875 32.046875 Z M 6.816406 29.28125 C 4.878906 29.28125 3.304688 27.722656 3.304688 25.808594 C 3.304688 23.898438 4.878906 22.339844 6.816406 22.339844 C 8.753906 22.339844 10.328125 23.898438 10.328125 25.808594 C 10.328125 27.722656 8.753906 29.28125 6.816406 29.28125 Z M 40.6875 30.121094 C 41.105469 30.578125 41.582031 31.371094 41.46875 32.578125 C 41.300781 34.308594 38.789062 38.074219 34.691406 40.371094 C 31.316406 42.269531 27.707031 43.230469 23.960938 43.230469 C 20.214844 43.230469 16.605469 42.269531 13.226562 40.371094 C 9.128906 38.074219 6.621094 34.308594 6.453125 32.578125 C 6.339844 31.375 6.816406 30.578125 7.234375 30.121094 C 7.804688 29.503906 8.636719 29.121094 9.402344 29.121094 C 10.695312 29.121094 11.277344 29.777344 11.621094 30.167969 L 11.675781 30.226562 C 15.125 34.105469 19.832031 36.519531 23.960938 36.519531 C 28.082031 36.519531 32.792969 34.109375 36.246094 30.226562 L 36.304688 30.164062 C 36.648438 29.777344 37.230469 29.121094 38.515625 29.121094 C 39.285156 29.121094 40.117188 29.503906 40.6875 30.121094 Z M 37.671875 25.804688 C 37.671875 23.894531 39.246094 22.339844 41.183594 22.339844 C 43.121094 22.339844 44.695312 23.894531 44.695312 25.804688 C 44.695312 27.714844 43.121094 29.273438 41.183594 29.273438 C 39.246094 29.273438 37.671875 27.71875 37.671875 25.804688 Z M 37.671875 25.804688 "/>
<path style=" stroke:none;fill-rule:nonzero;fill:rgb(100%,89.803922%,0%);fill-opacity:1;" d="M 44.695312 25.804688 C 44.695312 27.714844 43.121094 29.273438 41.183594 29.273438 C 39.246094 29.273438 37.671875 27.714844 37.671875 25.804688 C 37.671875 23.894531 39.246094 22.339844 41.183594 22.339844 C 43.121094 22.339844 44.695312 23.894531 44.695312 25.804688 Z M 6.816406 29.28125 C 8.753906 29.28125 10.328125 27.722656 10.328125 25.808594 C 10.328125 23.898438 8.753906 22.339844 6.816406 22.339844 C 4.878906 22.339844 3.304688 23.898438 3.304688 25.808594 C 3.304688 27.722656 4.878906 29.28125 6.816406 29.28125 Z M 13.226562 40.371094 C 16.605469 42.269531 20.21875 43.230469 23.960938 43.230469 C 27.707031 43.230469 31.320312 42.269531 34.695312 40.371094 C 38.792969 38.074219 41.300781 34.308594 41.46875 32.578125 C 41.585938 31.371094 41.109375 30.574219 40.6875 30.121094 C 40.117188 29.503906 39.285156 29.121094 38.519531 29.121094 C 37.230469 29.121094 36.652344 29.773438 36.304688 30.164062 L 36.25 30.226562 C 32.792969 34.105469 28.085938 36.515625 23.960938 36.515625 C 19.835938 36.515625 15.128906 34.105469 11.675781 30.222656 L 11.625 30.164062 C 11.277344 29.773438 10.699219 29.117188 9.40625 29.117188 C 8.636719 29.117188 7.808594 29.503906 7.238281 30.121094 C 6.816406 30.574219 6.339844 31.371094 6.457031 32.578125 C 6.621094 34.308594 9.128906 38.074219 13.226562 40.371094 Z M 38.933594 12.691406 C 37.648438 10.890625 32.769531 5.015625 23.960938 5.015625 C 15.144531 5.015625 10.273438 10.894531 8.992188 12.691406 C 6.949219 15.546875 5.703125 16.398438 4.960938 16.90625 C 4.890625 16.953125 4.828125 17 4.765625 17.042969 C 4.765625 17.609375 4.851562 21.347656 7.523438 22.019531 C 9.183594 22.433594 10.867188 21.484375 12.667969 19.117188 C 12.734375 19.027344 12.820312 18.90625 12.925781 18.757812 C 14.140625 17.054688 17.828125 11.867188 23.960938 11.867188 C 30.089844 11.867188 33.777344 17.046875 34.992188 18.75 C 35.101562 18.902344 35.1875 19.027344 35.257812 19.113281 C 37.054688 21.484375 38.738281 22.433594 40.398438 22.019531 C 43.070312 21.347656 43.164062 17.613281 43.160156 17.042969 C 43.105469 17 43.042969 16.960938 42.976562 16.914062 C 42.230469 16.410156 40.984375 15.5625 38.933594 12.691406 Z M 30.339844 5.84375 C 28.914062 5.371094 27.835938 5.003906 26.078125 4.851562 C 26.886719 4.296875 27.605469 3.824219 28.433594 3.824219 C 28.867188 3.824219 29.238281 3.988281 29.324219 4.289062 C 29.40625 4.5625 29.1875 4.683594 29.109375 4.664062 C 29.027344 4.640625 28.96875 4.617188 28.988281 4.546875 C 29.011719 4.46875 28.949219 4.269531 28.671875 4.269531 C 28.390625 4.269531 28.285156 4.523438 28.285156 4.699219 C 28.285156 4.878906 28.570312 5.171875 29.089844 5.171875 C 29.601562 5.171875 29.863281 4.835938 29.84375 4.523438 C 30.089844 4.882812 30.234375 5.242188 30.339844 5.84375 M 24.027344 3.996094 C 23.984375 4.265625 23.667969 4.523438 23.351562 4.523438 C 23.035156 4.523438 22.9375 4.472656 22.9375 4.472656 C 22.890625 4.546875 22.847656 4.601562 22.796875 4.683594 C 23.085938 4.671875 23.753906 4.652344 24.023438 4.652344 C 24.289062 4.652344 25.03125 4.691406 25.191406 4.703125 C 24.933594 4.105469 24.4375 3.277344 24.09375 3.277344 C 24.082031 3.277344 24.066406 3.277344 24.046875 3.277344 C 23.96875 3.277344 23.6875 3.515625 23.539062 3.726562 C 23.34375 4 24.027344 3.996094 24.027344 3.996094 Z M 41.839844 15.691406 L 41.84375 14.910156 C 40.496094 13.691406 39.859375 12.464844 39.859375 12.464844 C 39.859375 12.464844 40.355469 12.28125 40.578125 12.003906 C 40.6875 11.847656 40.730469 11.636719 40.710938 11.496094 C 40.667969 11.230469 40.457031 11.097656 40.386719 11.066406 C 40.230469 11 39.941406 10.851562 39.621094 11.285156 C 39.28125 11.757812 39.371094 12.648438 39.417969 12.855469 C 39.417969 12.855469 40.046875 13.933594 41.839844 15.691406 M 17.589844 5.84375 C 19.015625 5.371094 20.09375 5.003906 21.851562 4.851562 C 21.039062 4.296875 20.320312 3.824219 19.496094 3.824219 C 19.058594 3.824219 18.6875 3.988281 18.601562 4.289062 C 18.523438 4.5625 18.742188 4.683594 18.820312 4.664062 C 18.898438 4.640625 18.957031 4.617188 18.9375 4.546875 C 18.917969 4.46875 18.976562 4.269531 19.253906 4.269531 C 19.535156 4.269531 19.640625 4.523438 19.640625 4.699219 C 19.640625 4.878906 19.359375 5.171875 18.835938 5.171875 C 18.324219 5.171875 18.0625 4.835938 18.085938 4.523438 C 17.839844 4.882812 17.695312 5.242188 17.589844 5.84375 M 29.835938 42.796875 C 29.050781 43 28.488281 43.175781 27.164062 43.335938 C 27.164062 43.335938 27.203125 43.464844 27.492188 43.457031 C 27.605469 43.449219 27.617188 43.421875 27.65625 43.414062 C 27.742188 43.398438 27.863281 43.484375 27.851562 43.628906 C 27.839844 43.726562 27.753906 43.851562 27.460938 43.851562 C 27.167969 43.851562 26.824219 43.613281 26.652344 43.394531 C 26.652344 43.394531 26.476562 43.433594 26.292969 43.441406 C 26.292969 43.441406 26.859375 44.222656 27.972656 44.222656 C 29.191406 44.222656 29.648438 43.140625 29.835938 42.796875 M 6.089844 15.691406 L 6.085938 14.910156 C 7.433594 13.691406 8.066406 12.464844 8.066406 12.464844 C 8.066406 12.464844 7.574219 12.28125 7.351562 12.003906 C 7.242188 11.847656 7.199219 11.636719 7.21875 11.496094 C 7.261719 11.230469 7.472656 11.097656 7.542969 11.066406 C 7.699219 11 7.984375 10.851562 8.304688 11.285156 C 8.648438 11.757812 8.558594 12.648438 8.511719 12.855469 C 8.511719 12.855469 7.882812 13.933594 6.089844 15.691406 M 7.578125 12.605469 C 7.398438 12.921875 6.941406 13.675781 5.78125 14.746094 C 5.589844 14.925781 5.109375 15.074219 4.835938 14.773438 C 4.734375 14.65625 4.667969 14.492188 4.679688 14.304688 C 4.691406 14.082031 4.824219 13.824219 4.960938 13.714844 C 5.191406 13.519531 6.1875 12.527344 6.894531 11.746094 C 6.914062 11.886719 7.039062 12.125 7.039062 12.125 C 7.136719 12.257812 7.257812 12.449219 7.578125 12.605469 M 25.105469 43.398438 C 24.902344 43.6875 24.769531 43.671875 24.527344 43.671875 C 24.402344 43.671875 24.226562 43.769531 24.226562 43.953125 C 24.230469 44.09375 24.351562 44.210938 24.546875 44.210938 C 24.988281 44.210938 25.328125 43.605469 25.417969 43.347656 C 25.417969 43.347656 25.679688 43.335938 25.753906 43.328125 C 25.753906 43.328125 25.289062 44.699219 24.078125 44.699219 C 22.867188 44.699219 22.375 43.347656 22.375 43.347656 C 22.375 43.347656 23.394531 43.40625 23.976562 43.40625 C 24.558594 43.40625 24.929688 43.402344 25.105469 43.398438 M 18.34375 42.796875 C 19.132812 43 19.695312 43.175781 21.019531 43.335938 C 21.019531 43.335938 20.976562 43.464844 20.6875 43.457031 C 20.578125 43.449219 20.5625 43.421875 20.523438 43.414062 C 20.441406 43.398438 20.316406 43.484375 20.328125 43.628906 C 20.34375 43.726562 20.425781 43.851562 20.722656 43.851562 C 21.015625 43.851562 21.359375 43.613281 21.53125 43.394531 C 21.53125 43.394531 21.707031 43.433594 21.890625 43.441406 C 21.890625 43.441406 21.324219 44.222656 20.210938 44.222656 C 18.988281 44.222656 18.535156 43.140625 18.34375 42.796875 M 40.347656 12.605469 C 40.53125 12.921875 40.988281 13.675781 42.148438 14.746094 C 42.339844 14.925781 42.820312 15.074219 43.09375 14.773438 C 43.195312 14.65625 43.261719 14.492188 43.25 14.304688 C 43.238281 14.082031 43.105469 13.824219 42.96875 13.714844 C 42.734375 13.519531 41.738281 12.527344 41.03125 11.746094 C 41.011719 11.886719 40.890625 12.125 40.890625 12.125 C 40.789062 12.257812 40.671875 12.449219 40.347656 12.605469 M 25.121094 36.136719 L 31.824219 31.882812 L 31.835938 15.523438 C 31.886719 15.570312 31.9375 15.621094 31.988281 15.667969 C 31.558594 15.261719 31.085938 14.855469 30.570312 14.472656 L 30.558594 14.472656 C 30.792969 14.644531 31.023438 14.816406 31.234375 14.996094 C 31.066406 14.859375 30.894531 14.726562 30.734375 14.625 L 17.164062 14.625 C 16.785156 14.910156 16.425781 15.207031 16.097656 15.511719 L 16.097656 31.882812 L 22.800781 36.136719 C 23.191406 36.175781 23.582031 36.21875 23.960938 36.21875 C 24.34375 36.21875 24.730469 36.175781 25.121094 36.136719 Z M 24.902344 36.453125 C 24.589844 36.480469 24.269531 36.519531 23.960938 36.519531 C 23.652344 36.519531 23.335938 36.480469 23.019531 36.453125 L 23.960938 37.050781 Z M 24.902344 36.453125 "/>
<path style=" stroke:none;fill-rule:nonzero;fill:rgb(85.490196%,0.784314%,5.490196%);fill-opacity:1;" d="M 32 15.683594 C 31.945312 15.632812 31.886719 15.585938 31.835938 15.535156 L 31.835938 15.523438 C 31.890625 15.574219 31.945312 15.628906 32 15.683594 Z M 22.800781 36.136719 L 16.097656 31.882812 L 16.097656 15.511719 C 16.25 15.371094 16.414062 15.234375 16.578125 15.097656 L 16.578125 15.066406 L 16.609375 15.066406 C 16.628906 15.050781 16.648438 15.03125 16.671875 15.015625 L 16.671875 15.066406 L 31.265625 15.066406 L 31.265625 15.019531 C 31.28125 15.035156 31.296875 15.050781 31.316406 15.066406 L 31.359375 15.066406 L 31.359375 15.109375 C 31.527344 15.25 31.683594 15.390625 31.835938 15.535156 L 31.824219 31.882812 L 25.121094 36.136719 C 24.730469 36.175781 24.34375 36.21875 23.960938 36.21875 C 23.582031 36.21875 23.191406 36.175781 22.800781 36.136719 Z M 23.40625 24.234375 C 23.40625 24.234375 23.53125 24.699219 23.800781 25.125 C 24.066406 24.6875 24.179688 24.234375 24.179688 24.234375 Z M 24.195312 23.167969 C 24.320312 23.234375 24.480469 23.148438 24.523438 22.925781 C 24.542969 22.792969 24.585938 22.523438 24.527344 22.496094 C 24.472656 22.472656 24.273438 22.632812 24.179688 22.773438 C 24.089844 22.917969 24.066406 23.097656 24.195312 23.167969 Z M 23.332031 22.773438 C 23.242188 22.632812 23.054688 22.472656 22.996094 22.496094 C 22.9375 22.519531 22.976562 22.792969 22.996094 22.925781 C 23.027344 23.148438 23.195312 23.234375 23.324219 23.167969 C 23.449219 23.097656 23.429688 22.917969 23.332031 22.773438 Z M 19.117188 17.886719 L 20.25 18.160156 L 20.859375 16.480469 L 20.859375 16.054688 Z M 18.535156 17.972656 L 18.871094 18.875 L 28.445312 18.875 L 28.445312 18.359375 L 27.378906 18.359375 L 27.378906 17.921875 L 28.253906 17.921875 L 28.253906 16.003906 L 27.445312 16.003906 L 27.171875 15.476562 L 26.902344 16.003906 L 26.097656 16.003906 L 26.097656 17.921875 L 26.972656 17.921875 L 26.972656 18.359375 L 24.871094 18.359375 L 24.871094 17.921875 L 25.746094 17.921875 L 25.746094 16.003906 L 24.941406 16.003906 L 24.667969 15.476562 L 24.394531 16.003906 L 23.589844 16.003906 L 23.589844 17.921875 L 24.46875 17.921875 L 24.46875 18.359375 L 22.324219 18.359375 L 22.324219 17.921875 L 23.199219 17.921875 L 23.199219 16.003906 L 22.390625 16.003906 L 22.121094 15.476562 L 21.84375 16.003906 L 21.039062 16.003906 L 21.039062 17.921875 L 21.921875 17.921875 L 21.921875 18.359375 L 20.222656 18.363281 Z M 16.671875 19.035156 L 16.671875 19.542969 L 17.664062 19.542969 L 17.664062 19.703125 L 30.269531 19.703125 L 30.269531 19.542969 L 31.257812 19.542969 L 31.257812 19.035156 Z M 16.671875 31.574219 L 22.566406 35.316406 C 22.566406 35.3125 22.566406 35.308594 22.566406 35.308594 C 22.609375 35.054688 22.609375 34.902344 22.59375 34.679688 C 22.578125 34.453125 22.371094 34.140625 22.078125 33.765625 C 21.789062 33.390625 21.789062 33.046875 21.910156 32.175781 C 22.03125 31.308594 22.003906 30.753906 22.003906 30.753906 C 22.003906 30.753906 21.699219 30.765625 21.257812 30.753906 C 20.820312 30.734375 20.457031 30.484375 20.425781 29.433594 C 20.394531 28.386719 20.371094 25.886719 20.296875 25.625 C 20.226562 25.363281 19.945312 25.316406 19.824219 25.28125 C 19.699219 25.25 19.695312 25.074219 19.8125 25.011719 C 20.132812 24.859375 20.511719 24.476562 20.371094 24.234375 C 20.226562 23.996094 19.671875 24.046875 19.296875 24.226562 C 18.921875 24.40625 18.527344 24.796875 18.425781 24.90625 C 18.328125 25.011719 18.242188 25.011719 18.253906 24.898438 C 18.265625 24.773438 18.183594 24.203125 18.136719 24.003906 C 18.082031 23.804688 17.898438 23.425781 17.839844 23.324219 C 17.777344 23.226562 17.839844 23.1875 17.941406 23.226562 C 18.039062 23.265625 18.265625 23.355469 18.476562 23.414062 C 18.6875 23.476562 18.890625 23.371094 18.988281 23.175781 C 19.089844 22.972656 19.289062 22.546875 19.390625 22.355469 C 19.488281 22.167969 19.648438 22.210938 19.78125 22.238281 C 19.910156 22.269531 20.035156 22.347656 20.152344 22.394531 C 20.273438 22.445312 20.375 22.4375 20.417969 22.375 C 20.460938 22.316406 20.507812 22.296875 20.582031 22.144531 C 20.652344 21.996094 20.742188 22.066406 20.753906 22.128906 C 21.113281 24.277344 22.058594 24.375 22.058594 24.375 C 21.914062 24.734375 21.585938 25.304688 21.503906 25.449219 C 21.421875 25.582031 21.386719 25.773438 21.367188 25.921875 C 21.351562 26.070312 21.417969 27.492188 21.519531 28.011719 C 21.621094 28.53125 21.945312 28.328125 22.050781 28.171875 C 22.144531 28.011719 22.460938 27.351562 22.460938 27.351562 C 22.460938 27.351562 22.539062 27.171875 22.539062 27.019531 C 22.539062 26.871094 22.277344 26.542969 22.21875 26.441406 C 22.15625 26.339844 21.933594 26.140625 21.933594 25.640625 C 21.933594 25.140625 22.390625 24.796875 22.554688 24.664062 C 22.714844 24.535156 22.714844 24.351562 22.691406 24.242188 C 22.621094 23.855469 22.207031 23.046875 22.007812 22.734375 C 21.804688 22.425781 21.410156 21.835938 21.410156 21.835938 L 22.230469 21.835938 L 22.757812 20.753906 L 23.332031 21.84375 L 23.929688 21.847656 L 24.550781 20.777344 L 25.035156 21.847656 L 25.839844 21.847656 C 25.355469 22.296875 25.15625 22.972656 25.15625 23.425781 L 25.15625 23.917969 C 25.15625 24.128906 25.050781 24.472656 25.050781 24.472656 C 25.050781 24.472656 25.75 25 25.855469 25.089844 C 25.902344 25.125 25.949219 25.144531 25.917969 25.238281 C 25.863281 25.390625 25.386719 25.601562 25.339844 25.640625 C 25.230469 25.734375 25.203125 25.792969 25.230469 25.882812 C 25.265625 25.972656 25.355469 25.988281 25.535156 25.925781 C 25.71875 25.867188 26.097656 25.671875 26.417969 25.535156 C 26.734375 25.398438 27.160156 25.433594 27.160156 25.433594 L 27.160156 24.832031 L 25.960938 24.832031 L 25.960938 22.914062 L 25.746094 22.578125 L 26.277344 21.648438 L 26.808594 22.585938 L 26.597656 22.917969 L 26.597656 23.917969 L 27.210938 23.917969 L 27.210938 22.917969 L 27 22.585938 L 27.53125 21.65625 L 28.058594 22.585938 L 27.851562 22.917969 L 27.851562 23.917969 L 28.46875 23.917969 L 28.46875 22.917969 L 28.25 22.585938 L 28.78125 21.65625 L 29.3125 22.585938 L 29.101562 22.917969 L 29.109375 24.828125 L 27.902344 24.828125 L 27.902344 25.714844 C 28.175781 25.96875 28.433594 26.542969 28.433594 26.882812 C 28.433594 27.230469 28.207031 27.378906 28.207031 27.378906 C 28.28125 27.648438 28.269531 27.761719 28.234375 28.011719 C 28.207031 28.261719 27.886719 28.652344 27.886719 28.652344 L 27.886719 33.222656 C 27.886719 33.53125 27.160156 33.503906 27.160156 33.238281 L 27.160156 28.757812 C 26.746094 28.3125 25.625 27.960938 25.625 27.960938 C 25.214844 28.367188 24.960938 29.074219 24.960938 29.074219 C 25.140625 29.195312 25.417969 29.074219 25.523438 28.953125 C 25.625 28.832031 25.835938 28.800781 25.960938 28.878906 C 26.078125 28.953125 26.109375 28.980469 26.066406 29.15625 C 26.019531 29.34375 25.945312 29.640625 25.945312 29.847656 C 25.945312 30.0625 26.1875 30.011719 26.367188 30.027344 C 26.734375 30.0625 26.796875 30.464844 26.765625 30.6875 C 26.734375 30.914062 26.628906 31.394531 26.628906 31.695312 C 26.628906 31.988281 26.644531 32.289062 26.671875 32.457031 C 26.703125 32.621094 26.765625 32.800781 26.746094 33.011719 C 26.730469 33.296875 26.550781 33.34375 26.367188 33.160156 C 26.1875 32.980469 23.652344 30.3125 23.652344 30.3125 C 23.484375 30.855469 24.183594 31.78125 24.410156 32.066406 C 24.640625 32.351562 24.625 32.5625 24.425781 32.757812 C 24.230469 32.949219 23.847656 33.054688 23.773438 33.234375 C 23.699219 33.410156 23.957031 33.957031 24.488281 34.628906 C 24.972656 35.242188 24.074219 35.667969 23.398438 35.839844 L 23.957031 36.195312 L 31.246094 31.570312 L 31.253906 20.535156 L 16.671875 20.535156 Z M 27.164062 27.289062 L 27.164062 26.675781 C 27.164062 26.675781 26.996094 26.421875 26.589844 26.421875 C 26.179688 26.421875 25.933594 26.546875 25.933594 26.644531 C 25.933594 26.8125 26.300781 27.289062 27.164062 27.289062 Z M 12.484375 12.804688 L 13.121094 14.015625 L 13.742188 13.355469 Z M 6.835938 28.851562 C 5.132812 28.851562 3.757812 27.492188 3.757812 25.8125 C 3.757812 24.132812 5.136719 22.769531 6.835938 22.769531 C 8.539062 22.769531 9.921875 24.132812 9.921875 25.8125 C 9.921875 27.492188 8.539062 28.851562 6.835938 28.851562 Z M 8.332031 23.835938 C 8.199219 23.984375 7.941406 24.09375 7.679688 24.164062 C 7.679688 24.164062 7.550781 24.234375 7.480469 24.351562 C 7.363281 24.527344 6.96875 25.476562 6.953125 26.023438 C 6.945312 26.214844 7.109375 26.367188 7.363281 26.332031 C 7.617188 26.296875 8.0625 26.308594 8.773438 25.648438 C 8.933594 25.503906 9.46875 24.882812 9.296875 24.472656 C 9.15625 24.148438 8.917969 23.875 8.652344 23.636719 C 8.652344 23.636719 8.519531 23.53125 8.46875 23.488281 C 8.46875 23.488281 8.460938 23.683594 8.332031 23.835938 Z M 5.742188 23.375 C 5.742188 23.460938 5.816406 23.648438 6.144531 23.75 C 6.472656 23.851562 6.9375 24 7.3125 24 C 7.6875 24 8.257812 23.878906 8.257812 23.523438 C 8.257812 23.410156 8.226562 23.339844 8.128906 23.273438 C 7.742188 23.03125 7.28125 22.945312 6.808594 22.945312 C 6.496094 22.945312 6.195312 22.996094 5.910156 23.089844 C 5.808594 23.125 5.742188 23.296875 5.742188 23.375 Z M 4.796875 27.304688 C 4.765625 27.15625 4.671875 26.269531 4.777344 25.601562 C 4.800781 25.421875 4.503906 25.195312 4.445312 25.101562 C 4.394531 25.007812 4.332031 24.9375 4.285156 24.867188 C 4.226562 24.769531 4.160156 24.882812 4.160156 24.882812 C 4.085938 25.136719 4.042969 25.402344 4.042969 25.679688 C 4.042969 26.390625 4.316406 27.070312 4.699219 27.441406 C 4.785156 27.515625 4.824219 27.453125 4.796875 27.304688 Z M 4.953125 25.058594 C 5.046875 24.695312 5.417969 24.050781 5.503906 23.945312 C 5.585938 23.84375 5.558594 23.710938 5.558594 23.648438 C 5.558594 23.582031 5.523438 23.484375 5.523438 23.417969 C 5.523438 23.300781 5.449219 23.304688 5.398438 23.324219 C 4.988281 23.515625 4.664062 23.875 4.4375 24.265625 C 4.386719 24.355469 4.386719 24.5625 4.421875 24.632812 C 4.476562 24.734375 4.640625 25.078125 4.777344 25.148438 C 4.910156 25.226562 4.9375 25.140625 4.953125 25.058594 Z M 6.925781 28.035156 C 6.765625 27.609375 6.671875 26.914062 6.699219 26.214844 C 6.734375 25.4375 7.054688 24.785156 7.148438 24.515625 C 7.242188 24.242188 7.085938 24.214844 6.9375 24.179688 C 6.789062 24.152344 6.59375 24.113281 6.496094 24.082031 C 6.3125 24.027344 6.253906 24 6.09375 23.953125 C 5.9375 23.914062 5.726562 23.929688 5.632812 24.101562 C 5.535156 24.265625 4.941406 25.117188 4.941406 26.546875 C 4.941406 26.984375 5.070312 27.851562 5.414062 28.035156 C 5.742188 28.222656 6.300781 28.410156 6.808594 28.410156 C 6.824219 28.410156 6.847656 28.410156 6.867188 28.410156 C 7.027344 28.414062 7.027344 28.3125 6.925781 28.035156 Z M 9.578125 25.679688 C 9.578125 25.492188 9.542969 25.320312 9.523438 25.226562 C 9.507812 25.113281 9.414062 25.097656 9.375 25.179688 C 9.335938 25.253906 9.140625 25.671875 8.6875 26.035156 C 8.238281 26.402344 7.746094 26.601562 7.058594 26.613281 C 6.976562 26.617188 6.933594 26.742188 6.933594 26.855469 C 6.933594 26.972656 7.007812 27.835938 7.292969 28.15625 C 7.367188 28.238281 7.4375 28.347656 7.597656 28.300781 C 8.730469 27.9375 9.578125 26.921875 9.578125 25.679688 Z M 44.273438 25.800781 C 44.273438 27.484375 42.894531 28.839844 41.191406 28.839844 C 39.488281 28.839844 38.109375 27.484375 38.109375 25.800781 C 38.109375 24.121094 39.488281 22.761719 41.191406 22.761719 C 42.894531 22.761719 44.273438 24.121094 44.273438 25.800781 Z M 39.773438 23.511719 C 39.773438 23.867188 40.339844 23.988281 40.71875 23.988281 C 41.097656 23.988281 41.558594 23.839844 41.886719 23.738281 C 42.21875 23.636719 42.289062 23.449219 42.289062 23.367188 C 42.289062 23.28125 42.226562 23.113281 42.121094 23.082031 C 41.835938 22.988281 41.535156 22.9375 41.222656 22.9375 C 40.746094 22.9375 40.289062 23.019531 39.902344 23.265625 C 39.800781 23.324219 39.773438 23.402344 39.773438 23.511719 Z M 39.257812 25.640625 C 39.96875 26.296875 40.414062 26.289062 40.664062 26.324219 C 40.917969 26.359375 41.082031 26.203125 41.074219 26.015625 C 41.058594 25.460938 40.664062 24.515625 40.546875 24.34375 C 40.472656 24.226562 40.347656 24.152344 40.347656 24.152344 C 40.085938 24.085938 39.828125 23.96875 39.699219 23.820312 C 39.566406 23.675781 39.558594 23.480469 39.558594 23.480469 C 39.507812 23.519531 39.375 23.628906 39.375 23.628906 C 39.109375 23.863281 38.871094 24.140625 38.734375 24.464844 C 38.5625 24.875 39.097656 25.496094 39.257812 25.640625 Z M 40.742188 28.144531 C 41.027344 27.824219 41.097656 26.964844 41.097656 26.847656 C 41.097656 26.730469 41.058594 26.609375 40.972656 26.605469 C 40.28125 26.589844 39.796875 26.390625 39.339844 26.023438 C 38.894531 25.660156 38.695312 25.242188 38.65625 25.167969 C 38.613281 25.082031 38.527344 25.101562 38.503906 25.214844 C 38.488281 25.316406 38.453125 25.484375 38.453125 25.667969 C 38.453125 26.910156 39.300781 27.925781 40.4375 28.289062 C 40.59375 28.339844 40.667969 28.230469 40.742188 28.144531 Z M 43.089844 26.535156 C 43.089844 25.109375 42.492188 24.257812 42.398438 24.085938 C 42.304688 23.921875 42.09375 23.902344 41.9375 23.941406 C 41.777344 23.988281 41.71875 24.015625 41.535156 24.070312 C 41.4375 24.101562 41.242188 24.144531 41.09375 24.171875 C 40.945312 24.203125 40.785156 24.234375 40.882812 24.507812 C 40.980469 24.78125 41.296875 25.425781 41.328125 26.203125 C 41.359375 26.902344 41.265625 27.601562 41.109375 28.023438 C 41.003906 28.300781 41.003906 28.40625 41.160156 28.402344 L 41.222656 28.402344 C 41.730469 28.402344 42.289062 28.210938 42.617188 28.027344 C 42.957031 27.839844 43.089844 26.972656 43.089844 26.535156 Z M 43.253906 25.140625 C 43.394531 25.066406 43.554688 24.722656 43.609375 24.621094 C 43.644531 24.550781 43.644531 24.347656 43.59375 24.257812 C 43.363281 23.859375 43.046875 23.503906 42.628906 23.316406 C 42.578125 23.292969 42.511719 23.292969 42.511719 23.40625 C 42.511719 23.472656 42.472656 23.574219 42.472656 23.636719 C 42.472656 23.703125 42.445312 23.835938 42.53125 23.933594 C 42.613281 24.039062 42.984375 24.6875 43.082031 25.050781 C 43.097656 25.128906 43.117188 25.214844 43.253906 25.140625 Z M 43.988281 25.664062 C 43.988281 25.390625 43.949219 25.125 43.871094 24.867188 C 43.871094 24.867188 43.804688 24.757812 43.742188 24.855469 C 43.699219 24.925781 43.636719 24.996094 43.582031 25.09375 C 43.527344 25.1875 43.230469 25.410156 43.253906 25.589844 C 43.359375 26.257812 43.265625 27.148438 43.238281 27.292969 C 43.203125 27.4375 43.25 27.507812 43.328125 27.429688 C 43.710938 27.058594 43.988281 26.382812 43.988281 25.664062 Z M 39.074219 17.125 C 39.363281 16.871094 39.359375 16.550781 39.109375 16.277344 L 38.898438 16.046875 L 38 16.851562 L 38.160156 17.027344 C 38.433594 17.320312 38.792969 17.382812 39.074219 17.125 Z M 40.335938 30.394531 C 40.691406 30.785156 41.101562 31.46875 41 32.523438 C 40.863281 33.960938 38.554688 37.679688 34.445312 39.988281 C 31.132812 41.847656 27.59375 42.789062 23.925781 42.789062 C 20.261719 42.789062 16.722656 41.847656 13.410156 39.988281 C 9.296875 37.675781 6.992188 33.960938 6.851562 32.523438 C 6.753906 31.46875 7.160156 30.785156 7.523438 30.394531 C 8.003906 29.871094 8.730469 29.53125 9.371094 29.53125 C 10.46875 29.53125 10.929688 30.054688 11.289062 30.460938 C 14.847656 34.460938 19.679688 36.933594 23.925781 36.933594 C 28.171875 36.933594 33.007812 34.460938 36.5625 30.460938 C 36.921875 30.054688 37.382812 29.53125 38.484375 29.53125 C 39.121094 29.53125 39.851562 29.871094 40.335938 30.394531 Z M 16.28125 38.652344 L 17.410156 36.644531 L 16.550781 36.175781 L 15.492188 38.066406 C 15.171875 38.632812 14.84375 38.992188 14.304688 38.6875 C 13.773438 38.390625 13.894531 37.960938 14.222656 37.375 L 15.285156 35.480469 L 14.429688 35.011719 L 13.304688 37.011719 C 12.6875 38.113281 13.464844 38.796875 14.074219 39.128906 C 14.722656 39.480469 15.667969 39.742188 16.28125 38.652344 Z M 21.714844 37.910156 L 20.882812 37.691406 L 20.230469 40.105469 L 19.007812 37.195312 L 18.246094 36.996094 L 17.320312 40.40625 L 18.148438 40.625 L 18.804688 38.195312 L 20.046875 41.125 L 20.789062 41.324219 Z M 23.730469 38.125 L 22.792969 38.074219 L 22.605469 41.601562 L 23.542969 41.648438 Z M 26.578125 38.289062 L 27.566406 38.15625 L 27.496094 37.6875 L 24.578125 38.09375 L 24.644531 38.554688 L 25.648438 38.414062 L 26.078125 41.449219 L 27.011719 41.324219 Z M 31.613281 40.105469 L 31.46875 39.65625 L 30.167969 40.066406 L 29.8125 38.984375 L 30.875 38.644531 L 30.726562 38.195312 L 29.664062 38.535156 L 29.359375 37.605469 L 30.449219 37.253906 L 30.300781 36.808594 L 28.3125 37.449219 L 29.417969 40.804688 Z M 35.109375 36.144531 C 34.515625 35.121094 33.539062 35.097656 32.441406 35.722656 L 31.230469 36.410156 L 33.023438 39.484375 L 34.230469 38.796875 C 35.480469 38.085938 35.597656 37.007812 35.109375 36.144531 Z M 32.644531 36.148438 L 32.285156 36.355469 L 33.601562 38.601562 L 33.9375 38.410156 C 34.636719 38.015625 34.730469 37.441406 34.273438 36.65625 C 33.960938 36.097656 33.484375 35.675781 32.644531 36.148438 Z M 5.214844 17.289062 L 5.210938 17.257812 L 5.238281 17.234375 C 5.941406 16.757812 7.253906 15.863281 9.339844 12.941406 C 10.59375 11.183594 15.363281 5.441406 23.960938 5.441406 C 32.5625 5.441406 37.324219 11.183594 38.578125 12.941406 C 40.683594 15.882812 41.9375 16.734375 42.6875 17.246094 L 42.714844 17.265625 L 42.714844 17.300781 C 42.683594 18.175781 42.421875 21.070312 40.289062 21.605469 C 38.816406 21.972656 37.285156 21.074219 35.472656 18.6875 C 34.105469 16.765625 30.320312 11.4375 23.960938 11.4375 C 17.601562 11.4375 13.8125 16.765625 12.445312 18.6875 C 10.640625 21.074219 9.105469 21.972656 7.628906 21.605469 C 5.507812 21.074219 5.242188 18.164062 5.214844 17.289062 Z M 35.96875 17.40625 L 36.59375 18.09375 L 37.652344 17.15625 L 37.957031 17.496094 L 37.289062 18.988281 L 38.089844 19.621094 L 38.632812 18.015625 C 38.640625 18.023438 39.1875 18.289062 39.789062 17.753906 C 40.296875 17.304688 40.128906 16.6875 39.597656 16.109375 L 38.625 15.039062 Z M 36.726562 12.695312 L 33.988281 14.964844 L 35.46875 16.707031 L 35.835938 16.40625 L 34.960938 15.375 L 35.851562 14.644531 L 36.566406 15.484375 L 36.933594 15.179688 L 36.214844 14.335938 L 36.96875 13.710938 L 37.703125 14.574219 L 38.070312 14.273438 Z M 33.617188 10.410156 L 34.367188 11.082031 L 32.285156 13.359375 L 32.988281 13.984375 L 35.066406 11.703125 L 35.804688 12.363281 L 36.125 12.019531 L 33.933594 10.066406 Z M 29.851562 10.800781 L 29.378906 11.003906 C 29.484375 11.359375 29.730469 11.730469 30.269531 12.054688 C 30.9375 12.449219 31.664062 12.382812 32.007812 11.824219 C 32.253906 11.4375 32.257812 11.113281 31.957031 10.535156 C 31.882812 10.371094 31.78125 10.253906 31.714844 10.101562 C 31.582031 9.859375 31.460938 9.664062 31.574219 9.476562 C 31.699219 9.273438 31.988281 9.253906 32.25 9.414062 C 32.523438 9.578125 32.636719 9.847656 32.695312 10.03125 L 33.128906 9.851562 C 32.996094 9.5 32.800781 9.1875 32.351562 8.925781 C 31.585938 8.472656 30.964844 8.589844 30.703125 9.015625 C 30.441406 9.445312 30.515625 9.804688 30.714844 10.167969 C 30.714844 10.167969 30.835938 10.375 30.90625 10.515625 C 31.082031 10.804688 31.28125 11.164062 31.140625 11.386719 C 30.96875 11.671875 30.675781 11.734375 30.386719 11.558594 C 30.015625 11.328125 29.929688 11.0625 29.851562 10.800781 Z M 26.761719 10.4375 L 28.941406 11.175781 L 29.097656 10.730469 L 27.8125 10.289062 L 28.191406 9.214844 L 29.242188 9.570312 L 29.402344 9.125 L 28.347656 8.765625 L 28.667969 7.84375 L 29.753906 8.210938 L 29.90625 7.765625 L 27.925781 7.09375 Z M 22.761719 10.289062 L 23.703125 10.308594 L 23.734375 8.691406 L 25.136719 8.714844 L 25.109375 10.332031 L 26.050781 10.347656 L 26.109375 6.8125 L 25.171875 6.800781 L 25.144531 8.238281 L 23.742188 8.21875 L 23.761719 6.773438 L 22.824219 6.757812 Z M 18.820312 9.230469 C 18.96875 9.855469 19.53125 11 21.308594 10.625 C 21.800781 10.53125 22.070312 10.339844 22.328125 10.09375 L 22.003906 9.726562 C 21.882812 9.859375 21.699219 10.054688 21.289062 10.140625 C 20.429688 10.320312 19.917969 9.632812 19.789062 9.039062 C 19.601562 8.160156 20.117188 7.554688 20.703125 7.429688 C 21.121094 7.339844 21.375 7.449219 21.535156 7.511719 L 21.542969 7.511719 L 21.652344 7.0625 C 21.367188 6.949219 21.03125 6.875 20.503906 6.988281 C 19.339844 7.230469 18.570312 8.078125 18.820312 9.230469 Z M 14.167969 9.984375 L 16.066406 12.984375 L 16.789062 12.535156 L 15.4375 10.398438 L 18.460938 11.507812 L 19.113281 11.105469 L 17.210938 8.105469 L 16.484375 8.558594 L 17.828125 10.675781 L 14.835938 9.570312 Z M 11.6875 12.402344 L 13.402344 15.769531 L 13.820312 15.328125 L 13.355469 14.433594 L 14.183594 13.554688 L 15.121094 13.945312 L 15.8125 13.21875 L 12.300781 11.757812 Z M 7.613281 17.023438 L 10.355469 19.296875 L 10.769531 18.808594 L 8.835938 17.195312 L 11.429688 18.03125 L 11.703125 17.710938 L 10.464844 15.261719 L 12.410156 16.871094 L 13.019531 16.164062 L 10.277344 13.890625 L 9.613281 14.675781 L 10.855469 17.214844 L 8.1875 16.351562 Z M 7.613281 17.023438 "/>
</g>
</svg>
